# xmcd
# 
# Track frame offsets:
#     150
#     10979
#     22655
#     33450
#     44452
#     57976
#     72432
#     86510
#     101919
#     111361
#     123675
#     133635
#     142327
#     152885
#     163360
#     180329
#     192697
#     206194
# 
# Disc length: 2957
# 
# Revision: 1
# Processed by: cddbd v1.5.2PL0 Copyright (c) Steve Scherf et al.
# Submitted via: fre:ac v1.0.31
# 
DISCID=150b8b12
DTITLE=Buck Owens - The Complete Capitol Singles 1967-1970 Disc 2
DYEAR=2018
DGENRE=Country
TTITLE0=Who's Gonna Mow Your Grass
TTITLE1=There's Gotta Be Some Changes Made
TTITLE2=Johnny B. Goode
TTITLE3=Maybe If I Close My Eyes (It'll Go Away)
TTITLE4=Tall Dark Stranger
TTITLE5=Sing That Kind Of Song
TTITLE6=Big In Vegas
TTITLE7=White Satin Bed
TTITLE8=We're Gonna Get Together (Buck Owens and Susan Raye)
TTITLE9=Everybody Needs Somebody (Buck Owens and Susan Raye)
TTITLE10=Togetherness (Buck Owens and Susan Raye)
TTITLE11=Fallin' For You (Buck Owens and Susan Raye)
TTITLE12=The Kansas City Song
TTITLE13=I'd Love To Be Your Man
TTITLE14=The Great White Horse (Buck Owens and Susan Raye)
TTITLE15=Your Tender Loving Care (Buck Owens and Susan Raye)
TTITLE16=I Wouldn't Live In New York City (If They Gave Me The Whole Dang Town)
TTITLE17=No Milk And Honey In Baltimore
EXTD=
EXTT0=
EXTT1=
EXTT2=
EXTT3=
EXTT4=
EXTT5=
EXTT6=
EXTT7=
EXTT8=
EXTT9=
EXTT10=
EXTT11=
EXTT12=
EXTT13=
EXTT14=
EXTT15=
EXTT16=
EXTT17=
PLAYORDER=
